<svg width="840" height="240" viewBox="0 0 840 240" fill="none" xmlns="http://www.w3.org/2000/svg">
  <circle cx="50" cy="50" r="32" fill="#2D8CF0"/>
  <path d="M22 110C22 98.9543 30.9543 90 42 90H82V212H22V110Z" fill="#2D8CF0"/>
  <path d="M110 64C110 41.9086 127.909 24 150 24H211C222.124 24 232.731 28.6321 240.304 36.7922L355 160.419V64C355 41.9086 372.909 24 395 24H442V216H381C370.064 216 359.611 211.525 352.063 203.614L197 35V216H150C127.909 216 110 198.091 110 176V64Z" fill="#2D8CF0"/>
  <path d="M474 64C474 41.9086 491.909 24 514 24H702C724.091 24 742 41.9086 742 64V86C742 108.091 724.091 126 702 126H592V142H694C716.091 142 734 159.909 734 182V184C734 206.091 716.091 224 694 224H514C491.909 224 474 206.091 474 184V64Z" fill="#FF3131"/>
  <circle cx="586" cy="87" r="12" fill="#08111F"/>
  <circle cx="586" cy="181" r="12" fill="#08111F"/>
  <path d="M748 24H814C836.091 24 854 41.9086 854 64V76H788V224H734V76H668V64C668 41.9086 685.909 24 708 24H748Z" fill="#2D8CF0"/>
</svg>
